<svg version="1" xmlns="http://www.w3.org/2000/svg" width="1024" height="1024" viewBox="0 0 768.000000 768.000000"><path d="M192 192v64h-64.1c-60.5 0-64 .1-63.5 1.7.6 1.9 11.6 45.8 12.1 48.3.2.8 1.7 7.1 3.5 14s3.3 13.2 3.5 14c.2.8 2.2 8.9 4.5 18s4.3 17.2 4.5 18c.3 1.7 2.3 9.6 3.1 12.2.5 1.7 3.7 1.8 48.5 1.8H192l.1 66.2c0 36.5.2 68.5.4 71.3.4 5.6 1.3 13.8 2 16.9.2 1.2.7 3.7.9 5.6.3 1.9 1.4 7.1 2.4 11.5 8.5 35.1 24.6 57.2 50.2 68.8 8.6 3.9 13.4 5.9 15 6.3.8.2 4.9 1.2 9 2.4 4.1 1.1 11.1 2.6 15.5 3.4 4.4.9 9.6 1.8 11.5 2.2 1.9.4 36.3.9 76.3 1.1 70.1.4 72.9.4 72.3-1.4-.6-1.9-11.6-45.8-12.1-48.3-.2-.8-1.7-7.1-3.5-14s-3.3-13.2-3.5-14c-.2-.8-2.2-8.9-4.5-18s-4.3-17.2-4.5-18c-.3-1.7-2.3-9.6-3.1-12.3-.5-1.6-3.7-1.7-48.5-1.7H320V384h128l.1 66.2c0 76.3-.1 73.5 3.5 95.3.3 1.6 1 4.8 1.5 7 .6 2.2 1.3 4.9 1.6 6 .2 1.1.5 2.4.7 3 5.6 20.3 13.9 35.5 25.7 47.3 3.5 3.4 6.6 6.2 7.1 6.2s1.9.9 3 2c2.9 2.6 18.5 10.2 26.8 13 7.1 2.4 20.5 5.8 26 6.6 1.9.3 5.5 1 8 1.6 2.8.7 32.1 1.2 78.3 1.5 71.1.4 73.9.4 73.4-1.4-.9-2.7-2.9-10.6-3.2-12.3-.2-.8-4.2-16.8-8.9-35.5-10.3-40.8-8.7-34.6-13.6-54.5-2.3-9.1-4.5-18.2-5.1-20.3l-1-3.7H576V384h96V256h-96V128H448v128H320V128H192v64z"/></svg>